<svg width="512" height="512" viewBox="0 0 512 512" fill="none" xmlns="http://www.w3.org/2000/svg">
  <!-- Outer black border -->
  <path d="M256 480C350 480 426 404 426 310V256C426 162 350 86 256 86C162 86 86 162 86 256V310C86 404 162 480 256 480Z" fill="#000000"/>

  <!-- Main brown body -->
  <path d="M256 470C344 470 416 398 416 310V256C416 168 344 96 256 96C168 96 96 168 96 256V310C96 398 168 470 256 470Z" fill="#B8814A"/>

  <!-- Left ear -->
  <path d="M140 180C140 150 120 130 100 140C80 150 70 170 80 190C90 210 140 210 140 180Z" fill="#000000"/>
  <path d="M138 184C138 160 122 145 108 152C94 159 88 175 96 190C104 205 138 205 138 184Z" fill="#B8814A"/>

  <!-- Right ear -->
  <path d="M372 180C372 150 392 130 412 140C432 150 442 170 432 190C422 210 372 210 372 180Z" fill="#000000"/>
  <path d="M374 184C374 160 390 145 404 152C418 159 424 175 416 190C408 205 374 205 374 184Z" fill="#B8814A"/>

  <!-- Cream belly/chest -->
  <path d="M256 260C310 260 355 305 355 360V440C355 460 340 470 320 470H192C172 470 157 460 157 440V360C157 305 202 260 256 260Z" fill="#F4E4C1"/>

  <!-- Left eye outer -->
  <ellipse cx="200" cy="240" rx="28" ry="32" fill="#000000"/>
  <!-- Left eye white highlight -->
  <ellipse cx="206" cy="232" rx="8" ry="10" fill="#FFFFFF"/>

  <!-- Right eye outer -->
  <ellipse cx="312" cy="240" rx="28" ry="32" fill="#000000"/>
  <!-- Right eye white highlight -->
  <ellipse cx="318" cy="232" rx="8" ry="10" fill="#FFFFFF"/>

  <!-- Nose -->
  <ellipse cx="256" cy="290" rx="24" ry="20" fill="#000000"/>

  <!-- Mouth - smile -->
  <path d="M220 320 Q230 335 256 335 Q282 335 292 320" stroke="#000000" stroke-width="8" stroke-linecap="round" fill="none"/>

  <!-- Left arm/paw -->
  <path d="M180 380C180 380 160 420 170 450C175 465 190 460 195 445C200 430 210 400 210 400" fill="#B8814A" stroke="#000000" stroke-width="6"/>

  <!-- Left paw details -->
  <path d="M172 445C172 445 165 450 165 455C165 460 170 463 175 463C180 463 182 458 180 453C178 448 172 445 172 445Z" fill="#000000"/>
  <path d="M180 448C180 448 178 453 180 456C182 459 186 459 188 456C190 453 188 448 188 448" fill="#000000"/>
  <path d="M188 445C188 445 186 450 188 453C190 456 194 456 196 453C198 450 196 445 196 445" fill="#000000"/>

  <!-- Right arm/paw -->
  <path d="M332 380C332 380 352 420 342 450C337 465 322 460 317 445C312 430 302 400 302 400" fill="#B8814A" stroke="#000000" stroke-width="6"/>

  <!-- Right paw details -->
  <path d="M340 445C340 445 347 450 347 455C347 460 342 463 337 463C332 463 330 458 332 453C334 448 340 445 340 445Z" fill="#000000"/>
  <path d="M332 448C332 448 334 453 332 456C330 459 326 459 324 456C322 453 324 448 324 448" fill="#000000"/>
  <path d="M324 445C324 445 326 450 324 453C322 456 318 456 316 453C314 450 316 445 316 445" fill="#000000"/>
</svg>
